<svg xmlns="http://www.w3.org/2000/svg" viewBox="0 0 410 404"><defs><linearGradient id="vite-grad" x1="0" y1="0" x2="1" y2="1"><stop offset="0" stop-color="#41d1ff"/><stop offset="1" stop-color="#bd34fe"/></linearGradient><linearGradient id="vite-grad-2" x1="0" y1="0" x2="1" y2="1"><stop offset="0" stop-color="#ffd200"/><stop offset="1" stop-color="#f7971e"/></linearGradient></defs><path d="M255.14 12.02c-5.96-14.07-25.32-14.07-31.28 0l-30.29 71.51c-3.05 7.2-9.44 12.5-17.09 13.93L99.95 111.3c-15.07 2.8-21.1 20.73-10.08 31.5l58.32 57.1c5.69 5.56 8.28 13.57 6.68 21.35l-13.77 70.35c-2.93 14.95 13.1 26.38 26.44 19.35l63.07-33.16c7.18-3.77 15.77-3.77 22.95 0l63.07 33.16c13.34 7.03 29.37-4.4 26.44-19.35l-13.77-70.35c-1.6-7.78.99-15.79 6.68-21.35l58.32-57.1c11.02-10.77 4.99-28.7-10.08-31.5l-76.53-14.83c-7.65-1.43-14.04-6.73-17.09-13.93z" fill="url(#vite-grad)"/><path d="M144.24 257.57 256.42 39.6c2.04-3.88 7.74-3.13 8.7 1.14l38.72 169.07a4.67 4.67 0 0 1-1.5 4.56l-120.8 98.43c-3.66 2.98-9.03 1.04-9.64-3.54l-7.81-58.55c-.36-2.7.45-5.42 2.13-7.63z" fill="url(#vite-grad-2)"/></svg>
