<svg xmlns="http://www.w3.org/2000/svg" viewBox="0 0 256 257" preserveAspectRatio="xMidYMid">
  <defs>
    <linearGradient id="prefix__a" x1="-.828%" x2="57.636%" y1="7.652%" y2="78.411%">
      <stop offset="0%" stop-color="#41d1ff"/>
      <stop offset="100%" stop-color="#bd34fe"/>
    </linearGradient>
    <linearGradient id="prefix__b" x1="43.376%" x2="50.316%" y1="2.242%" y2="89.03%">
      <stop offset="0%" stop-color="#ffea83"/>
      <stop offset="8.333%" stop-color="#ffdd35"/>
      <stop offset="100%" stop-color="#ffa800"/>
    </linearGradient>
  </defs>
  <path fill="url(#prefix__a)" d="M255.153 37.938L134.897 252.976c-2.483 4.506-8.862 4.466-11.29-.071L.875 37.959c-2.72-4.95 1.657-10.846 7.224-9.746l120.385 23.684a6.537 6.537 0 002.4 0l116.99-23.625c5.52-1.116 9.923 4.71 7.243 9.657z"/>
  <path fill="url(#prefix__b)" d="M185.432.063l-97.47 19.657a3.268 3.268 0 00-2.574 3.014l-5.474 92.456a3.268 3.268 0 004.123 3.287l27.148-6.431c2.318-.549 4.413 1.507 3.936 3.838l-8.06 39.922c-.495 2.452 1.782 4.521 4.151 3.78l16.741-5.258c2.372-.746 4.652 1.34 4.105 3.799l-12.8 56.598c-.732 3.238 3.366 5.072 5.167 2.37l1.313-2.028 79.475-158.062c1.215-2.417-.88-5.186-3.55-4.672l-28.001 5.281c-2.396.452-4.435-1.77-3.759-4.123l18.407-64.397c.677-2.366-1.37-4.59-3.769-4.123z"/>
</svg>
